PathFileType	4	(X/Y/Z)	/Users/itak/Documents/Research/Walk-IL/dataset/trc/00380_00012.trc
DataRate	CameraRate	NumFrames	NumMarkers	Units	OrigDataRate	OrigDataStartFrame	OrigNumFrames
100.000000	100.000000	4	57	mm	100.000000	69	559
Frame#	Time	RPSI			LPSI			L3			STRN			T10			C7			CLAV			RBAK			LBAK			LSHO			LUPA			LAEL			LAOL			LWTS			LWPS			LFRA			LIFD			LHPS			LHTS			RSHO			RUPA			RAEL			RAOL			RWPS			RFRA			RIFD			RBHD			LFHD			RFHD			LBHD			LHIP			RHIP			RASI			LASI			LKNE			LTHI			LANK			LTIP			LTOE			LMT1			LMT5			LHEE			RKNE			RTHI			RANK			RTIP			RTOE			RMT1			RMT5			RHEE			RWTS			RHPS			RHTS			*53			*54			*55			*56			
		X1	Y1	Z1	X2	Y2	Z2	X3	Y3	Z3	X4	Y4	Z4	X5	Y5	Z5	X6	Y6	Z6	X7	Y7	Z7	X8	Y8	Z8	X9	Y9	Z9	X10	Y10	Z10	X11	Y11	Z11	X12	Y12	Z12	X13	Y13	Z13	X14	Y14	Z14	X15	Y15	Z15	X16	Y16	Z16	X17	Y17	Z17	X18	Y18	Z18	X19	Y19	Z19	X20	Y20	Z20	X21	Y21	Z21	X22	Y22	Z22	X23	Y23	Z23	X24	Y24	Z24	X25	Y25	Z25	X26	Y26	Z26	X27	Y27	Z27	X28	Y28	Z28	X29	Y29	Z29	X30	Y30	Z30	X31	Y31	Z31	X32	Y32	Z32	X33	Y33	Z33	X34	Y34	Z34	X35	Y35	Z35	X36	Y36	Z36	X37	Y37	Z37	X38	Y38	Z38	X39	Y39	Z39	X40	Y40	Z40	X41	Y41	Z41	X42	Y42	Z42	X43	Y43	Z43	X44	Y44	Z44	X45	Y45	Z45	X46	Y46	Z46	X47	Y47	Z47	X48	Y48	Z48	X49	Y49	Z49	X50	Y50	Z50	X51	Y51	Z51	X52	Y52	Z52	X53	Y53	Z53	X54	Y54	Z54	X55	Y55	Z55	X56	Y56	Z56	X57	Y57	Z57	

70	0.6900000000000001	-1548.560424804688	994.9605102539062	150.7451019287109	-1564.692626953125	988.1364135742188	19.88071632385254	-1556.367065429688	1062.7919921875	87.47910308837891	-1316.495727539062	1219.531127929688	74.27191925048828	-1566.779052734375	1167.026000976562	85.45950317382812	-1529.184204101562	1415.986938476562	78.81988525390625	-1371.286743164062	1338.089721679688	78.27676391601562	-1568.452392578125	1267.825317382812	144.2216796875	-1547.369018554688	1381.029907226562	-24.90919494628906	-1462.002807617188	1398.471313476562	-76.9996337890625	-1486.849853515625	1284.207641601562	-149.9616088867188	-1461.51171875	1087.92431640625	-179.9361877441406	-1519.774169921875	1064.211547851562	-122.5428314208984	-1340.766845703125	892.952392578125	-123.5288696289062	-1380.765258789062	868.7471313476562	-190.8849029541016	-1429.606079101562	987.331787109375	-187.5194702148438	-1301.569580078125	717.6090698242188	-124.4406280517578	-1348.624877929688	788.7059326171875	-178.2736968994141	-1299.564208984375	803.5283813476562	-141.7875823974609	-1469.143188476562	1391.27392578125	233.6056671142578	-1483.8154296875	1326.622680664062	291.4477844238281	-1491.989501953125	1067.017211914062	335.6786804199219	-1511.9462890625	1057.456176757812	243.0453796386719	-1413.635498046875	840.287109375	369.2318725585938	-1468.510864257812	1001.552368164062	353.0846252441406	-1381.919311523438	675.8564453125	314.5392456054688	-1480.782470703125	1604.491088867188	159.3810424804688	-1336.099731445312	1601.230346679688	23.31801795959473	-1347.80908203125	1607.14990234375	145.1141967773438	-1482.714233398438	1596.068359375	-2.158194780349731	-1487.466064453125	975.9556884765625	-100.8377685546875	-1457.246826171875	965.3109130859375	256.7446899414062	-1329.61767578125	971.9853515625	190.6905364990234	-1371.385131835938	969.9878540039062	-70.21107482910156	-1458.862670898438	482.2047729492188	-100.0720977783203	-1461.565185546875	624.3905639648438	-107.7072143554688	-1577.629760742188	48.54320526123047	-72.89615631103516	-1521.481811523438	254.2838287353516	-98.27379608154297	-1356.77783203125	40.25775527954102	-21.79508781433105	-1437.37158203125	46.82976150512695	11.812819480896	-1450.631958007812	44.36282348632812	-91.33036041259766	-1611.900512695312	46.00753021240234	-14.16605281829834	-1455.986328125	475.468994140625	221.7923583984375	-1394.142700195312	734.3988037109375	248.1759643554688	-1530.8798828125	57.62876129150391	174.3522796630859	-1455.569213867188	349.0750122070312	201.1586303710938	-1358.135498046875	38.30961990356445	96.06661224365234	-1436.510375976562	47.06362915039062	74.59710693359375	-1447.529052734375	45.22234344482422	174.7393798828125	-1609.083129882812	52.13629150390625	127.0961380004883	-1374.490356445312	847.3721923828125	307.1790771484375	-1411.358642578125	750.591552734375	372.8250122070312	-1359.1806640625	742.2274780273438	331.1921081542969	nan	nan	nan	nan	nan	nan	nan	nan	nan	nan	nan	nan	
71	0.7000000000000001	-1548.101318359375	994.8071899414062	151.2452545166016	-1564.472412109375	987.9671020507812	20.42595672607422	-1555.8974609375	1062.564453125	87.86876678466797	-1316.013549804688	1219.094848632812	74.17630004882812	-1566.314331054688	1166.786499023438	85.80745697021484	-1528.6396484375	1415.680297851562	78.78276824951172	-1370.836059570312	1337.7353515625	78.24571990966797	-1567.87451171875	1267.466186523438	144.3388214111328	-1546.88232421875	1380.65185546875	-24.88307571411133	-1461.569580078125	1397.996948242188	-77.06253814697266	-1486.437377929688	1283.723754882812	-149.9368438720703	-1461.308837890625	1087.447143554688	-180.0524291992188	-1519.588256835938	1063.753295898438	-122.6329803466797	-1340.815307617188	892.3153686523438	-123.7777404785156	-1380.886474609375	868.1611328125	-191.0719909667969	-1429.5703125	986.814697265625	-187.6863555908203	-1301.873168945312	716.9405517578125	-124.5557708740234	-1348.825805664062	788.0770874023438	-178.4208221435547	-1299.375122070312	802.859375	-141.8722991943359	-1468.606323242188	1391.078979492188	233.4971923828125	-1483.236572265625	1326.44580078125	291.4097900390625	-1491.198852539062	1066.837646484375	335.9927978515625	-1511.290283203125	1057.178344726562	243.4839019775391	-1412.739379882812	840.2390747070312	369.7128601074219	-1467.68408203125	1001.425842285156	353.4580383300781	-1380.644287109375	675.8215942382812	315.1763916015625	-1480.080200195312	1604.029052734375	159.5332641601562	-1335.22216796875	1600.87890625	23.73170471191406	-1347.034057617188	1606.563110351562	145.51123046875	-1481.801879882812	1596.052490234375	-1.910992026329041	-1487.267456054688	975.59814453125	-100.38134765625	-1456.721069335938	965.1309204101562	257.1723327636719	-1329.157348632812	971.5601806640625	190.8941802978516	-1371.205688476562	969.5404663085938	-70.00382232666016	-1459.271606445312	481.98388671875	-100.0808334350586	-1461.836547851562	624.1644287109375	-107.5873489379883	-1577.717407226562	48.25864791870117	-72.97633361816406	-1521.872802734375	254.1129913330078	-98.37013244628906	-1356.83154296875	40.29141235351562	-21.81313896179199	-1437.45703125	46.8187255859375	11.74164199829102	-1450.70458984375	44.14146423339844	-91.43276214599609	-1611.94873046875	45.69343566894531	-14.17881393432617	-1457.245727539062	475.3411560058594	222.4649658203125	-1394.554565429688	734.0834350585938	248.6836242675781	-1531.059326171875	57.36722183227539	174.2964172363281	-1456.631469726562	348.958740234375	201.6873321533203	-1358.168090820312	38.30604553222656	96.06069946289062	-1436.538452148438	47.06185531616211	74.61836242675781	-1447.556518554688	45.1968879699707	174.7463989257812	-1609.14599609375	51.80485916137695	126.9500885009766	-1373.610473632812	847.3411254882812	307.5321044921875	-1410.211059570312	750.6323852539062	373.3776245117188	-1357.918212890625	742.3206176757812	331.73681640625	nan	nan	nan	nan	nan	nan	nan	nan	nan	nan	nan	nan	
72	0.71	-1547.74462890625	994.62646484375	151.6900787353516	-1564.293334960938	987.7831420898438	20.9090576171875	-1555.513916015625	1062.316162109375	88.21458435058594	-1315.572875976562	1218.630004882812	74.11484527587891	-1565.900756835938	1166.532104492188	86.11920928955078	-1528.157836914062	1415.3603515625	78.7264404296875	-1370.474609375	1337.349365234375	78.21075439453125	-1567.380737304688	1267.083862304688	144.4243621826172	-1546.439819335938	1380.24560546875	-24.88269996643066	-1461.18212890625	1397.487670898438	-77.14688873291016	-1486.07421875	1283.18408203125	-149.9195861816406	-1461.11572265625	1086.917846679688	-180.1682891845703	-1519.381469726562	1063.237060546875	-122.703857421875	-1341.018432617188	891.5109252929688	-124.0891494750977	-1381.112915039062	867.5064086914062	-191.3345642089844	-1429.58251953125	986.2361450195312	-187.8744812011719	-1302.484130859375	716.0725708007812	-124.895133972168	-1349.224487304688	787.3578491210938	-178.7330780029297	-1299.315185546875	802.0223999023438	-142.0356292724609	-1468.173461914062	1390.871826171875	233.3653259277344	-1482.76220703125	1326.257690429688	291.356201171875	-1490.421630859375	1066.6142578125	336.2945556640625	-1510.678588867188	1056.856323242188	243.9210662841797	-1411.75927734375	840.1909790039062	370.1578674316406	-1466.844970703125	1001.264892578125	353.8261108398438	-1379.296630859375	675.7853393554688	315.7422790527344	-1479.514526367188	1603.586181640625	159.6605072021484	-1334.431030273438	1600.522827148438	24.07963752746582	-1346.339965820312	1606.001953125	145.8571319580078	-1480.978271484375	1596.01025390625	-1.724514961242676	-1487.07275390625	975.2532348632812	-99.94955444335938	-1456.285034179688	964.90625	257.5810546875	-1328.785278320312	971.1183471679688	191.1010894775391	-1371.016357421875	969.11083984375	-69.82773590087891	-1459.729125976562	481.7700805664062	-100.0981369018555	-1462.146606445312	623.9461669921875	-107.4883193969727	-1577.79248046875	48.00299453735352	-73.03256225585938	-1522.281494140625	253.9363098144531	-98.45906066894531	-1356.89453125	40.33766174316406	-21.82735252380371	-1437.529296875	46.80221557617188	11.69068622589111	-1450.783447265625	43.9412956237793	-91.52676391601562	-1611.997680664062	45.40039443969727	-14.17708683013916	-1458.381225585938	475.1946411132812	223.0322875976562	-1394.975341796875	733.757568359375	249.1211395263672	-1531.210815429688	57.09934997558594	174.2266235351562	-1457.598022460938	348.8055114746094	202.0862884521484	-1358.207153320312	38.30349349975586	96.05596923828125	-1436.568725585938	47.04072189331055	74.61582183837891	-1447.5810546875	45.18261337280273	174.7432708740234	-1609.224853515625	51.48520660400391	126.8139266967773	-1372.648559570312	847.3271484375	307.8468017578125	-1408.9228515625	750.67333984375	373.8628540039062	-1356.567993164062	742.4366455078125	332.2275085449219	nan	nan	nan	nan	nan	nan	nan	nan	nan	nan	nan	nan	
73	0.72	-1547.489379882812	994.4400634765625	152.0626373291016	-1564.144165039062	987.6007690429688	21.31406402587891	-1555.206665039062	1062.060668945312	88.51181030273438	-1315.182983398438	1218.15869140625	74.1033935546875	-1565.541870117188	1166.274658203125	86.38663482666016	-1527.740600585938	1415.046752929688	78.65426635742188	-1370.179809570312	1336.9501953125	78.1629638671875	-1566.969116210938	1266.708251953125	144.4795379638672	-1546.044921875	1379.8330078125	-24.91108131408691	-1460.834838867188	1396.966186523438	-77.24665832519531	-1485.767211914062	1282.611938476562	-149.9082183837891	-1460.946166992188	1086.359497070312	-180.2714996337891	-1519.152587890625	1062.687133789062	-122.7367248535156	-1341.391967773438	890.5653686523438	-124.4529495239258	-1381.464233398438	866.803955078125	-191.6614227294922	-1429.650024414062	985.6173706054688	-188.0701904296875	-1303.36767578125	715.0409545898438	-125.4483413696289	-1349.833251953125	786.5706787109375	-179.197998046875	-1299.415771484375	801.0462646484375	-142.2857055664062	-1467.835815429688	1390.663940429688	233.2201538085938	-1482.381958007812	1326.0693359375	291.2915954589844	-1489.66357421875	1066.365966796875	336.5862426757812	-1510.106567382812	1056.511474609375	244.3447418212891	-1410.689697265625	840.1566162109375	370.5569763183594	-1465.993408203125	1001.085266113281	354.1832580566406	-1377.863159179688	675.7706298828125	316.2403564453125	-1479.074829101562	1603.198486328125	159.7744140625	-1333.716064453125	1600.169311523438	24.36753273010254	-1345.724243164062	1605.479125976562	146.1602783203125	-1480.235961914062	1595.949584960938	-1.609171390533447	-1486.87939453125	974.9426879882812	-99.55635833740234	-1455.9599609375	964.6591796875	257.9582824707031	-1328.519165039062	970.6702270507812	191.3239288330078	-1370.80712890625	968.716796875	-69.66712188720703	-1460.225830078125	481.5778503417969	-100.1126327514648	-1462.4912109375	623.7509155273438	-107.4084014892578	-1577.86181640625	47.77584838867188	-73.06520843505859	-1522.704833984375	253.7679901123047	-98.54061889648438	-1356.971069335938	40.40115356445312	-21.83730316162109	-1437.594482421875	46.78438186645508	11.65979385375977	-1450.865356445312	43.77087783813477	-91.6075439453125	-1612.0478515625	45.1385612487793	-14.16538047790527	-1459.368408203125	475.0413818359375	223.5010986328125	-1395.380249023438	733.4412841796875	249.4991455078125	-1531.334228515625	56.83516693115234	174.1455383300781	-1458.465454101562	348.6322937011719	202.3704681396484	-1358.245849609375	38.3018684387207	96.052001953125	-1436.599365234375	47.00403213500977	74.59319305419922	-1447.602783203125	45.17856979370117	174.7311706542969	-1609.314575195312	51.18357467651367	126.6846160888672	-1371.619018554688	847.3380737304688	308.1272583007812	-1407.512084960938	750.7168579101562	374.2860717773438	-1355.154907226562	742.5760498046875	332.6577453613281	nan	nan	nan	nan	nan	nan	nan	nan	nan	nan	nan	nan	
